<svg width="512" height="512" viewBox="0 0 512 512" fill="none" xmlns="http://www.w3.org/2000/svg">
  <rect width="512" height="512" rx="128" fill="#020617"/>
  <path d="M360 160C360 270.457 270.457 360 160 360C146.21 360 132.846 358.601 120 355.938C164.672 389.809 220.021 410 280 410C418.071 410 530 298.071 530 160C530 100.021 509.809 44.6724 475.938 0C478.601 12.8458 480 26.2104 480 40C480 150.457 390.457 240 280 240C266.21 240 252.846 238.601 240 235.938C284.672 269.809 340.021 290 400 290C538.071 290 650 178.071 650 40C650 -19.9786 629.809 -75.3276 595.938 -120C598.601 -107.154 600 -93.7896 600 -80C600 30.4569 510.457 120 400 120" fill="#10B981" transform="translate(-80, 0)"/>
  <path d="M320 180L332 210L362 210L338 228L348 258L320 240L292 258L302 228L278 210L308 210L320 180Z" fill="#FBBF24"/>
</svg>
