<?xml version="1.0" encoding="utf-8"?>
<!-- Generator: Adobe Illustrator 25.3.1, SVG Export Plug-In . SVG Version: 6.00 Build 0)  -->
<svg version="1.1" id="Layer_1" xmlns="http://www.w3.org/2000/svg" xmlns:xlink="http://www.w3.org/1999/xlink" x="0px" y="0px"
	 viewBox="0 0 512 512" style="enable-background:new 0 0 512 512;" xml:space="preserve">
<style type="text/css">
	.st0{fill:#020617;}
	.st1{fill:#FBBF24;}
	.st2{fill:#FFFFFF;}
</style>
<path class="st0" d="M128,0h256c70.7,0,128,57.3,128,128v256c0,70.7-57.3,128-128,128H128C57.3,512,0,454.7,0,384V128
	C0,57.3,57.3,0,128,0z"/>
<path class="st1" d="M115,83.9l10.3,25.7H151L130.4,125l8.6,25.7l-24-15.4l-24,15.4l8.6-25.7L79,109.6h25.7L115,83.9z"/>
<path class="st2" d="M279.6,83.9c-25.9,0-50.5,5.2-73,14.5c5.8-0.8,11.7-1.2,17.7-1.2c70.8,0,128.1,57.4,128.1,128.1
	S295,353.4,224.2,353.4S96.1,296.1,96.1,225.3c0-0.9,0-1.8,0-2.6c-4.6,16.5-7.1,33.8-7.1,51.8C89,379.7,174.3,465,279.6,465
	s190.6-85.3,190.6-190.6S384.8,83.9,279.6,83.9z"/>
</svg>
